<?xml version="1.0" encoding="utf-8"?>
<!-- Generator: Adobe Illustrator 27.5.0, SVG Export Plug-In . SVG Version: 6.00 Build 0)  -->
<svg version="1.1" xmlns="http://www.w3.org/2000/svg" xmlns:xlink="http://www.w3.org/1999/xlink" x="0px" y="0px"
	 viewBox="0 0 750 500" style="enable-background:new 0 0 750 500;" xml:space="preserve">
<g id="BACKGROUND">
	<rect style="fill:#FFFFFF;" width="750" height="500"/>
</g>
<g id="OBJECTS">
	<g>
		<g>
			<ellipse style="fill:#A9D1D9;" cx="380.33" cy="448.548" rx="284.931" ry="5.875"/>
			<g>
				<path style="fill:#B9E4ED;" d="M160.107,444.141c0,0-170.709-142.46-28.248-261.433
					c45.511-38.007,67.893-94.485,125.875-118.766c50.751-21.253,111.876-25.75,163.399-4.488
					c39.601,16.343,54.772,53.201,79.056,84.914c5.849,7.639,12.296,15.316,21.057,19.299c49.044,22.287,82.654-64.166,121.725-0.05
					c57.28,93.998,22.903,238.742-37.314,281.335L160.107,444.141z"/>
				<g>
					<g>
						<path style="fill:#B9E4ED;" d="M67.654,287.188c0.179,7.162,1.144,14.261,2.566,21.247c1.353,7,3.202,13.891,5.343,20.677
							c4.309,13.57,9.996,26.673,16.759,39.191c3.328,6.292,7.047,12.366,10.863,18.378c3.91,5.951,7.954,11.823,12.278,17.495
							c8.605,11.373,17.919,22.24,27.801,32.622c-2.642-2.418-5.291-4.836-7.877-7.323c-2.524-2.545-5.111-5.037-7.59-7.634
							c-4.909-5.237-9.72-10.586-14.182-16.227c-1.118-1.408-2.271-2.789-3.362-4.22l-3.221-4.33
							c-1.09-1.432-2.126-2.903-3.144-4.388l-3.079-4.436c-3.932-6.031-7.715-12.168-11.129-18.517
							c-3.368-6.37-6.511-12.864-9.275-19.522c-2.701-6.682-5.135-13.479-7.078-20.419c-1.974-6.929-3.532-13.977-4.551-21.103
							c-0.51-3.562-0.867-7.144-1.092-10.73C67.46,294.366,67.378,290.765,67.654,287.188z"/>
					</g>
					<g>
						<path style="fill:#B9E4ED;" d="M180.624,115.994c-0.369,2.074-1.12,4.084-1.987,6.008c-0.392,0.99-0.91,1.91-1.38,2.86
							c-0.463,0.956-0.989,1.873-1.519,2.789c-2.096,3.684-4.514,7.162-7.029,10.561c-5.066,6.775-10.755,13.031-16.602,19.104
							l-4.521,4.418c-1.523,1.455-2.987,2.974-4.569,4.364l-4.695,4.224l-2.348,2.109c-0.788,0.697-1.61,1.355-2.413,2.034
							c-3.233,2.693-6.445,5.409-9.77,7.985c-3.349,2.548-6.69,5.1-10.112,7.544c2.999-2.958,6.081-5.808,9.154-8.663
							c1.562-1.398,3.06-2.867,4.58-4.31l4.584-4.298c6.08-5.76,12.092-11.572,17.972-17.508c2.882-3.018,5.857-5.957,8.626-9.075
							c2.878-3.025,5.566-6.21,8.283-9.371c2.633-3.225,5.273-6.46,7.622-9.899c0.608-0.847,1.214-1.697,1.756-2.585
							c0.552-0.881,1.143-1.747,1.645-2.657l0.784-1.355c0.254-0.456,0.472-0.928,0.714-1.391
							C179.882,117.953,180.305,116.996,180.624,115.994z"/>
					</g>
					<g>
						<path style="fill:#B9E4ED;" d="M466.242,80.754c5.288,8.158,10.16,16.578,15.349,24.779
							c5.127,8.234,10.414,16.37,16.328,23.996c2.918,3.845,6.098,7.463,9.36,10.984c1.707,1.683,3.339,3.449,5.159,5.001
							c0.901,0.785,1.754,1.63,2.692,2.367l2.806,2.22c0.917,0.775,1.923,1.374,2.874,2.074c1.007,0.602,1.972,1.285,3.021,1.806
							c2.041,1.156,4.209,2.047,6.421,2.761c4.431,1.435,9.151,1.809,13.794,1.312c2.324-0.252,4.635-0.7,6.915-1.305
							c2.277-0.621,4.518-1.407,6.729-2.286c4.418-1.78,8.675-4.012,12.863-6.385c4.185-2.387,8.292-4.944,12.384-7.548l6.16-3.922
							c2.167-1.306,4.413-2.367,6.729-3.29c4.635-1.787,9.565-2.965,14.573-2.997c2.498-0.022,4.997,0.221,7.442,0.728
							c2.44,0.544,4.8,1.381,7.05,2.438c4.438,2.249,8.353,5.402,11.529,9.133c3.208,3.712,5.778,7.9,7.917,12.261
							c-2.425-4.209-5.208-8.213-8.506-11.727c-3.287-3.52-7.233-6.386-11.558-8.333c-2.187-0.919-4.445-1.649-6.769-2.083
							c-2.328-0.401-4.693-0.551-7.051-0.452c-4.721,0.187-9.378,1.384-13.746,3.201c-2.174,0.926-4.308,2.002-6.273,3.253
							l-6.071,3.998c-4.065,2.67-8.17,5.31-12.389,7.799c-4.23,2.47-8.598,4.758-13.182,6.641c-2.298,0.927-4.642,1.762-7.049,2.431
							c-2.412,0.651-4.878,1.149-7.382,1.425c-5.006,0.516-10.183,0.082-14.996-1.504c-2.402-0.786-4.744-1.769-6.927-3.016
							c-1.124-0.57-2.149-1.296-3.22-1.947c-1.005-0.736-2.075-1.418-3.007-2.222l-2.874-2.343c-0.96-0.779-1.826-1.658-2.743-2.482
							c-1.854-1.632-3.5-3.462-5.225-5.215c-3.3-3.638-6.452-7.404-9.311-11.374C484.408,115.168,475.727,97.693,466.242,80.754z"/>
					</g>
					<g>
						<path style="fill:#B9E4ED;" d="M680.995,254.814c2.167,16.197,2.688,32.62,2.018,48.981
							c-0.722,16.359-2.648,32.721-6.395,48.724c-3.72,15.983-9.238,31.668-17.344,46.016c-4.1,7.133-8.768,13.953-14.194,20.134
							c-5.528,6.081-11.617,11.634-18.34,16.285c6.313-5.194,12.129-10.906,17.215-17.232l3.681-4.839
							c0.637-0.787,1.17-1.652,1.734-2.494l1.676-2.533c0.553-0.848,1.129-1.68,1.665-2.537l1.531-2.623l1.53-2.621l0.761-1.312
							l0.689-1.353l2.756-5.408l2.503-5.531c0.875-1.825,1.553-3.737,2.312-5.613c0.75-1.88,1.501-3.759,2.126-5.687
							c2.776-7.608,4.948-15.434,6.778-23.33c0.975-3.936,1.729-7.924,2.518-11.904l1.023-6.002c0.345-2,0.586-4.017,0.902-6.023
							c1.161-8.039,1.949-16.133,2.543-24.245c0.557-8.115,0.87-16.253,0.917-24.399
							C681.71,271.118,681.501,262.964,680.995,254.814z"/>
					</g>
				</g>
			</g>
		</g>
		<g>
			<g>
				<g>
					<g>
						<path style="fill:#00AB6B;" d="M138.807,279.52c0.568,1.909,0.884,3.927,0.884,6.02c0,11.637-9.434,21.07-21.07,21.07
							c-7.118,0-13.398-3.539-17.213-8.944c2.592,8.702,10.643,15.05,20.186,15.05c11.637,0,21.071-9.433,21.071-21.07
							C142.665,287.128,141.229,282.951,138.807,279.52z"/>
						<path style="fill:#1DC285;" d="M118.621,306.611c11.637,0,21.07-9.434,21.07-21.07c0-2.094-0.316-4.111-0.884-6.02
							c-3.815-5.404-10.095-8.944-17.213-8.944c-11.637,0-21.07,9.434-21.07,21.07c0,2.094,0.316,4.111,0.884,6.02
							C105.222,303.071,111.503,306.611,118.621,306.611z"/>
					</g>
					<g>
						<g>
							<g>
								<g>
									<path style="fill:#FFFFFF;" d="M126.696,277.615c-4.006-1.969-8.85-0.318-10.819,3.688
										c-1.969,4.006-0.318,8.849,3.688,10.818c4.006,1.969,8.85,0.318,10.819-3.688
										C132.353,284.427,130.702,279.583,126.696,277.615z M129.308,287.904c-1.677,3.411-5.802,4.818-9.213,3.141
										c-3.411-1.677-4.818-5.802-3.141-9.213c1.677-3.411,5.802-4.818,9.213-3.141
										C129.579,280.367,130.985,284.492,129.308,287.904z"/>
								</g>
							</g>
							<g>
								<g>
									<path style="fill:#FFFFFF;" d="M113.076,306.544l-0.966-0.475c-0.186-0.091-0.262-0.316-0.171-0.502l6.9-14.037
										l1.639,0.806l-6.9,14.037C113.487,306.559,113.262,306.635,113.076,306.544z"/>
								</g>
							</g>
						</g>
					</g>
				</g>
				<g>
					<path style="fill:#FFFFFF;" d="M103.389,294.763c-0.202-2.663,0.162-5.362,0.898-7.953c0.736-2.595,1.97-5.07,3.657-7.212
						c0.862-1.056,1.83-2.024,2.887-2.882c1.069-0.846,2.231-1.565,3.448-2.158c1.234-0.556,2.493-1.051,3.799-1.371
						c1.304-0.322,2.63-0.525,3.957-0.626c-2.596,0.585-5.114,1.429-7.403,2.68c-2.269,1.282-4.297,2.951-5.907,4.981
						c-1.621,2.022-2.823,4.362-3.709,6.822c-0.444,1.231-0.788,2.503-1.053,3.793C103.673,292.124,103.493,293.436,103.389,294.763
						z"/>
				</g>
			</g>
			<g>
				<g>
					<path style="fill:#FF7D37;" d="M533.766,191.179c0.568,1.909,0.884,3.927,0.884,6.02c0,11.637-9.434,21.071-21.07,21.071
						c-7.118,0-13.398-3.539-17.213-8.944c2.592,8.701,10.643,15.05,20.186,15.05c11.637,0,21.07-9.434,21.07-21.07
						C537.623,198.787,536.188,194.61,533.766,191.179z"/>
					<path style="fill:#FFA810;" d="M513.58,218.27c11.637,0,21.07-9.434,21.07-21.071c0-2.093-0.316-4.111-0.884-6.02
						c-3.815-5.404-10.095-8.943-17.213-8.943c-11.637,0-21.071,9.434-21.071,21.071c0,2.093,0.316,4.111,0.884,6.02
						C500.181,214.73,506.462,218.27,513.58,218.27z"/>
				</g>
				<g>
					<path style="fill:#FFFFFF;" d="M498.348,206.422c-0.202-2.663,0.162-5.362,0.898-7.953c0.736-2.595,1.97-5.07,3.657-7.212
						c0.862-1.055,1.83-2.024,2.887-2.883c1.069-0.845,2.231-1.565,3.448-2.157c1.234-0.556,2.493-1.051,3.8-1.371
						c1.304-0.322,2.63-0.525,3.957-0.626c-2.596,0.585-5.115,1.429-7.403,2.68c-2.269,1.282-4.297,2.951-5.908,4.981
						c-1.621,2.022-2.823,4.363-3.709,6.822c-0.444,1.231-0.788,2.503-1.053,3.793C498.632,203.783,498.452,205.095,498.348,206.422
						z"/>
				</g>
				<g>
					<g>
						<polygon style="fill:#FFFFFF;" points="504.513,201.238 528.592,192.95 518.89,209.968 515.109,207.882 511.77,211.676 
							511.707,206.041 						"/>
						<g>
							<polygon style="fill:#EBEBEB;" points="509.184,204.357 528.592,192.95 511.707,206.041 							"/>
							<polygon style="fill:#EBEBEB;" points="509.184,204.357 511.77,211.676 511.707,206.041 							"/>
						</g>
					</g>
				</g>
			</g>
			<g>
				<g>
					<path style="fill:#DB5C6A;" d="M258.492,128.02c0.569,1.909,0.884,3.927,0.884,6.02c0,11.637-9.434,21.071-21.07,21.071
						c-7.118,0-13.398-3.54-17.213-8.944c2.592,8.701,10.643,15.05,20.186,15.05c11.637,0,21.071-9.434,21.071-21.07
						C262.35,135.628,260.914,131.451,258.492,128.02z"/>
					<path style="fill:#F26575;" d="M238.306,155.111c11.637,0,21.07-9.434,21.07-21.071c0-2.093-0.316-4.111-0.884-6.02
						c-3.815-5.404-10.095-8.944-17.213-8.944c-11.637,0-21.07,9.434-21.07,21.07c0,2.094,0.316,4.111,0.884,6.02
						C224.908,151.571,231.188,155.111,238.306,155.111z"/>
				</g>
				<g>
					<path style="fill:#FFFFFF;" d="M223.075,143.263c-0.202-2.663,0.162-5.362,0.898-7.953c0.736-2.595,1.97-5.07,3.657-7.212
						c0.862-1.056,1.83-2.024,2.887-2.883c1.069-0.845,2.231-1.565,3.448-2.158c1.234-0.556,2.493-1.051,3.799-1.371
						c1.304-0.321,2.63-0.525,3.957-0.626c-2.596,0.585-5.114,1.429-7.403,2.68c-2.269,1.282-4.297,2.951-5.908,4.981
						c-1.621,2.022-2.823,4.363-3.709,6.822c-0.444,1.231-0.788,2.503-1.053,3.793C223.359,140.624,223.178,141.936,223.075,143.263
						z"/>
				</g>
				<g>
					
						<polyline style="fill:none;stroke:#FFFFFF;stroke-width:0.75;stroke-linecap:round;stroke-linejoin:round;stroke-miterlimit:10;" points="
						233.141,130.455 233.141,147.422 251.999,147.422 					"/>
					<g>
						<rect x="236.716" y="132.301" style="fill:#FFFFFF;" width="2.589" height="15.121"/>
						<rect x="241.275" y="137.047" style="fill:#FFFFFF;" width="2.589" height="10.375"/>
						<rect x="246.108" y="135.461" style="fill:#FFFFFF;" width="2.589" height="11.961"/>
					</g>
				</g>
			</g>
			<g>
				<rect x="99.622" y="249.78" style="fill:#350069;" width="124.332" height="9.205"/>
				<g>
					<g>
						<g>
							<path style="fill:#FF7D37;" d="M220.696,252.578c0.18,0.312,0.29,0.67,0.29,1.056c0,1.176-0.953,2.129-2.129,2.129
								c-0.412,0-0.793-0.122-1.119-0.325c0.368,0.638,1.049,1.073,1.838,1.073c1.176,0,2.129-0.953,2.129-2.129
								C221.706,253.618,221.301,252.954,220.696,252.578z"/>
							<path style="fill:#FFA810;" d="M220.987,253.634c0-0.386-0.111-0.744-0.29-1.056c-0.326-0.203-0.707-0.325-1.119-0.325
								c-1.176,0-2.129,0.953-2.129,2.129c0,0.386,0.111,0.743,0.291,1.056c0.326,0.202,0.707,0.325,1.119,0.325
								C220.034,255.763,220.987,254.81,220.987,253.634z"/>
							<g>
								<path style="fill:#FFFFFF;" d="M218.254,255.188c-0.187-0.548-0.155-1.201,0.181-1.729c0.179-0.252,0.435-0.459,0.726-0.549
									c0.286-0.11,0.59-0.107,0.877-0.081c-0.561,0.12-1.115,0.309-1.396,0.771c-0.158,0.213-0.243,0.475-0.303,0.744
									C218.285,254.614,218.251,254.898,218.254,255.188z"/>
							</g>
						</g>
						<g>
							<path style="fill:#00AB6B;" d="M105.117,252.204c0.18,0.312,0.291,0.67,0.291,1.056c0,1.176-0.953,2.129-2.129,2.129
								c-0.412,0-0.793-0.122-1.119-0.325c0.368,0.638,1.049,1.073,1.838,1.073c1.176,0,2.129-0.953,2.129-2.129
								C106.127,253.244,105.722,252.58,105.117,252.204z"/>
							<path style="fill:#1DC285;" d="M105.408,253.26c0-0.386-0.111-0.744-0.291-1.056c-0.326-0.202-0.707-0.325-1.119-0.325
								c-1.176,0-2.129,0.953-2.129,2.129c0,0.386,0.111,0.743,0.291,1.056c0.326,0.202,0.707,0.325,1.119,0.325
								C104.455,255.389,105.408,254.436,105.408,253.26z"/>
							<g>
								<path style="fill:#FFFFFF;" d="M102.675,254.814c-0.187-0.548-0.155-1.201,0.181-1.729c0.179-0.252,0.435-0.46,0.726-0.549
									c0.286-0.11,0.59-0.107,0.877-0.081c-0.561,0.12-1.115,0.309-1.396,0.771c-0.158,0.213-0.243,0.475-0.303,0.744
									C102.706,254.24,102.672,254.524,102.675,254.814z"/>
							</g>
						</g>
						<g>
							<path style="fill:#DB5C6A;" d="M111.175,252.204c0.18,0.312,0.291,0.67,0.291,1.056c0,1.176-0.953,2.129-2.129,2.129
								c-0.412,0-0.793-0.122-1.119-0.325c0.368,0.638,1.049,1.073,1.838,1.073c1.176,0,2.129-0.953,2.129-2.129
								C112.185,253.244,111.78,252.58,111.175,252.204z"/>
							<path style="fill:#DB5C6A;" d="M111.466,253.26c0-0.386-0.111-0.744-0.291-1.056c-0.326-0.202-0.707-0.325-1.119-0.325
								c-1.176,0-2.129,0.953-2.129,2.129c0,0.386,0.111,0.744,0.291,1.056c0.326,0.203,0.707,0.325,1.119,0.325
								C110.513,255.389,111.466,254.436,111.466,253.26z"/>
							<g>
								<path style="fill:#FFFFFF;" d="M108.733,254.814c-0.187-0.549-0.155-1.201,0.181-1.729c0.179-0.252,0.435-0.459,0.726-0.549
									c0.286-0.11,0.59-0.107,0.877-0.081c-0.561,0.12-1.115,0.309-1.396,0.771c-0.158,0.213-0.244,0.475-0.303,0.744
									C108.764,254.24,108.73,254.524,108.733,254.814z"/>
							</g>
						</g>
					</g>
					<path style="fill:#FFFFFF;" d="M192.217,256.137h-60.273c-0.132,0-0.24-0.107-0.24-0.24v-3.203c0-0.132,0.107-0.24,0.24-0.24
						h60.273c0.132,0,0.24,0.107,0.24,0.24v3.203C192.456,256.03,192.349,256.137,192.217,256.137z"/>
				</g>
			</g>
			<g>
				<g>
					<g>
						<g>
							<path style="fill:#1DC285;" d="M373.826,143.362h-62.074c-3.453,0-6.253-2.799-6.253-6.253V93.888h74.579v43.221
								C380.078,140.562,377.279,143.362,373.826,143.362z"/>
							<polygon style="fill:#00AB6B;" points="342.789,118.625 310.457,97.177 305.499,93.888 342.789,121.914 380.078,93.888 
								375.12,97.177 							"/>
							<polygon style="fill:#1DC285;" points="305.499,93.888 310.457,97.177 342.789,118.625 375.12,97.177 380.078,93.888 							
								"/>
						</g>
						<g>
							<path style="fill:#FFFFFF;" d="M308.142,99.788c0.155,2.686,0.227,5.372,0.287,8.058c0.062,2.686,0.056,5.372,0.087,8.058
								c-0.029,2.686-0.026,5.372-0.086,8.058c-0.06,2.686-0.133,5.372-0.288,8.058c-0.156-2.686-0.228-5.372-0.288-8.058
								c-0.06-2.686-0.057-5.372-0.086-8.058c0.031-2.686,0.026-5.372,0.087-8.058C307.915,105.16,307.987,102.474,308.142,99.788z"
								/>
						</g>
					</g>
				</g>
				<g>
					<g>
						<path style="fill:none;stroke:#210042;stroke-linecap:round;stroke-linejoin:round;stroke-miterlimit:10;" d="
							M430.312,102.081c12.303,0,22.276,9.974,22.276,22.277s-9.974,22.277-22.276,22.277c-12.303,0-22.277-9.974-22.277-22.277"/>
						<path style="fill:#210042;" d="M432.109,124.358c0,0.993-0.805,1.797-1.797,1.797c-0.993,0-1.797-0.805-1.797-1.797
							c0-0.993,0.805-1.797,1.797-1.797C431.305,122.56,432.109,123.365,432.109,124.358z"/>
						<polyline style="fill:none;stroke:#210042;stroke-linecap:round;stroke-linejoin:round;stroke-miterlimit:10;" points="
							430.312,107.63 430.312,124.358 441.06,124.358 						"/>
					</g>
					<path style="fill:#210042;" d="M449.859,124.358c0,0.671-0.544,1.214-1.214,1.214c-0.671,0-1.214-0.544-1.214-1.214
						c0-0.671,0.544-1.214,1.214-1.214C449.315,123.144,449.859,123.687,449.859,124.358z"/>
					<path style="fill:#210042;" d="M431.526,142.418c0,0.671-0.544,1.214-1.214,1.214c-0.671,0-1.214-0.544-1.214-1.214
						c0-0.67,0.544-1.214,1.214-1.214C430.983,141.204,431.526,141.747,431.526,142.418z"/>
				</g>
			</g>
			<g>
				<polyline style="fill:none;stroke:#FFFFFF;stroke-miterlimit:10;" points="155.003,277.797 168.759,291.554 154.817,305.496 
									"/>
				<polyline style="fill:none;stroke:#FFFFFF;stroke-miterlimit:10;" points="165.084,277.797 178.84,291.554 164.898,305.496 				
					"/>
				<polyline style="fill:none;stroke:#FFFFFF;stroke-miterlimit:10;" points="175.165,277.797 188.921,291.554 174.979,305.496 
									"/>
				<polyline style="fill:none;stroke:#FFFFFF;stroke-miterlimit:10;" points="185.246,277.797 199.003,291.554 185.06,305.496 				
					"/>
				<polyline style="fill:none;stroke:#FFFFFF;stroke-miterlimit:10;" points="195.327,277.797 209.084,291.554 195.142,305.496 
									"/>
				<polyline style="fill:none;stroke:#FFFFFF;stroke-miterlimit:10;" points="205.408,277.797 219.165,291.554 205.223,305.496 
									"/>
			</g>
			<g>
				<polyline style="fill:none;stroke:#FFFFFF;stroke-miterlimit:10;" points="627.454,187.135 612.444,202.146 627.657,217.359 
									"/>
				<polyline style="fill:none;stroke:#FFFFFF;stroke-miterlimit:10;" points="616.454,187.135 601.444,202.146 616.657,217.359 
									"/>
				<polyline style="fill:none;stroke:#FFFFFF;stroke-miterlimit:10;" points="605.454,187.135 590.444,202.146 605.657,217.359 
									"/>
				<polyline style="fill:none;stroke:#FFFFFF;stroke-miterlimit:10;" points="594.454,187.135 579.444,202.146 594.657,217.359 
									"/>
				<polyline style="fill:none;stroke:#FFFFFF;stroke-miterlimit:10;" points="583.454,187.135 568.444,202.146 583.657,217.359 
									"/>
				<polyline style="fill:none;stroke:#FFFFFF;stroke-miterlimit:10;" points="572.454,187.135 557.444,202.146 572.657,217.359 
									"/>
			</g>
			<g>
				<g>
					<g>
						<g>
							<polygon style="fill:#F26575;" points="219.871,222.175 218.645,224.659 215.903,225.057 217.887,226.991 217.419,229.722 
								219.871,228.432 222.323,229.722 221.855,226.991 223.839,225.057 221.097,224.659 							"/>
							<polygon style="fill:#F26575;" points="210.131,222.175 208.905,224.659 206.163,225.057 208.147,226.991 207.679,229.722 
								210.131,228.432 212.583,229.722 212.115,226.991 214.098,225.057 211.357,224.659 							"/>
							<polygon style="fill:#F26575;" points="200.391,222.175 199.164,224.659 196.423,225.057 198.407,226.991 197.938,229.722 
								200.391,228.432 202.843,229.722 202.374,226.991 204.358,225.057 201.617,224.659 							"/>
						</g>
						<rect x="144.037" y="184.633" style="fill:none;stroke:#FFFFFF;stroke-miterlimit:10;" width="88.077" height="29.576"/>
						<g>
							<g>
								<path style="fill:#FFA810;" d="M153.897,219.578h89.024c1.915,0,3.467-1.552,3.467-3.466v-25.611
									c0-1.915-1.552-3.467-3.467-3.467h-89.619c-1.954,0-3.538,1.584-3.538,3.538v24.872
									C149.764,217.727,151.614,219.578,153.897,219.578z"/>
								<path style="fill:#FF7D37;" d="M149.764,191.17c0,0,42.702,25.381,92.572,28.408h-87.838c-2.614,0-4.734-2.119-4.734-4.734
									V191.17z"/>
							</g>
							<g>
								<line style="fill:none;stroke:#FFFFFF;stroke-miterlimit:10;" x1="229.439" y1="193.879" x2="166.712" y2="193.879"/>
								<line style="fill:none;stroke:#FFFFFF;stroke-miterlimit:10;" x1="229.439" y1="198.592" x2="166.712" y2="198.592"/>
								<line style="fill:none;stroke:#FFFFFF;stroke-miterlimit:10;" x1="229.439" y1="203.306" x2="166.712" y2="203.306"/>
								<line style="fill:none;stroke:#FFFFFF;stroke-miterlimit:10;" x1="229.439" y1="208.02" x2="166.712" y2="208.02"/>
								<line style="fill:none;stroke:#FFFFFF;stroke-miterlimit:10;" x1="229.439" y1="212.733" x2="166.712" y2="212.733"/>
							</g>
							<path style="fill:#FFFFFF;" d="M231.628,203.306c0,10.734,8.701,19.435,19.435,19.435c10.734,0,19.435-8.701,19.435-19.435
								c0-10.734-8.701-19.435-19.435-19.435C240.329,183.871,231.628,192.572,231.628,203.306z"/>
							<g>
								<defs>
									<path id="SVGID_1_" d="M231.628,203.306c0,10.734,8.701,19.435,19.435,19.435c10.734,0,19.435-8.701,19.435-19.435
										c0-10.734-8.701-19.435-19.435-19.435C240.329,183.871,231.628,192.572,231.628,203.306z"/>
								</defs>
								<clipPath id="SVGID_00000139251354296231446850000009435166646337064082_">
									<use xlink:href="#SVGID_1_"  style="overflow:visible;"/>
								</clipPath>
								<g style="clip-path:url(#SVGID_00000139251354296231446850000009435166646337064082_);">
									<path style="fill:#F3A28D;" d="M263.662,211.785c-0.297-1.99-1.863-3.547-3.855-3.835
										c-2.265-0.327-3.958-0.803-4.496-1.229c-0.967-0.766-1.086-3.995-1.086-3.995l-2.642,0.717v-0.002l-0.024,0.001
										l-0.024-0.001v0.002l-2.436-0.546c0,0-0.438,3.057-1.406,3.824c-0.538,0.427-2.118,0.902-4.383,1.229
										c-1.991,0.288-3.557,1.845-3.855,3.835l-1.66,11.11h13.739h0.047h13.739L263.662,211.785z"/>
									<path style="fill:#F3A28D;" d="M257.526,195.484c0-4.424-2.664-8.01-5.95-8.01c-3.286,0-5.95,3.586-5.95,8.01
										c0,1.576,0.339,3.169,1.061,4.565c0.322,0.622,0.72,1.207,1.197,1.714c0.488,0.52,1.054,0.956,1.56,1.457
										c0.462,0.458,0.834,0.937,1.535,0.993c0.395,0.032,0.804,0,1.201,0c0.757,0,1.321-0.684,1.775-1.203
										c0.54-0.618,1.232-1.094,1.735-1.741C256.948,199.652,257.526,197.536,257.526,195.484z"/>
									<path style="fill:#210042;" d="M256.253,188.718c-0.535-0.425-1.148-0.764-1.798-1.002
										c-0.956-0.351-2.045-0.587-3.067-0.54c-0.611,0.028-1.223,0.174-1.77,0.449c-0.146,0.073-1.314,1.021-1.292,1.029
										c-1.677-0.664-3.732,2.061-3.398,3.909l0.929,5.134l0.113-2.852c0.014-0.357,0.22-0.682,0.543-0.835
										c1.66-0.79,2.217-3.774,2.217-3.774c0.683,1.58,3.151,1.82,7.526,2.704c0.428,0.086,0.764,0.417,0.86,0.843
										c0,0,0.262,3.478,0.262,3.48c-0.032-0.428,0.353-1.137,0.452-1.559C258.412,193.221,258.451,190.467,256.253,188.718z"/>
									<g>
										<path style="fill:#350069;" d="M247.696,206.721l3.88,4.779l3.736-4.779c0,0,3.492,0.18,5.828,1.276
											c2.336,1.096,2.725,3.633,2.725,3.633l1.458,11.265h-27.525c0,0,1.65-11.037,1.66-11.11
											c0.25-1.675,0.995-3.028,2.478-3.745C242.554,207.742,247.391,206.7,247.696,206.721z"/>
										<polygon style="fill:#FFFFFF;" points="255.317,206.721 257.526,206.975 253.409,214.756 251.591,211.488 										"/>
										<polygon style="fill:#FFFFFF;" points="247.721,206.721 245.626,207.115 249.67,214.756 251.591,211.488 										"/>
									</g>
								</g>
							</g>
						</g>
					</g>
					<g>
						<rect x="570.693" y="262.983" style="fill:none;stroke:#FFFFFF;stroke-miterlimit:10;" width="85.133" height="28.587"/>
						<g>
							<g>
								<g>
									<polygon style="fill:#F26575;" points="585.286,301.136 586.46,303.514 589.084,303.895 587.185,305.746 587.633,308.361 
										585.286,307.126 582.938,308.361 583.387,305.746 581.488,303.895 584.112,303.514 									"/>
									<polygon style="fill:#F26575;" points="594.611,301.136 595.784,303.514 598.409,303.895 596.51,305.746 596.958,308.361 
										594.611,307.126 592.263,308.361 592.711,305.746 590.812,303.895 593.437,303.514 									"/>
									<polygon style="fill:#F26575;" points="603.935,301.136 605.109,303.514 607.734,303.895 605.834,305.746 606.283,308.361 
										603.935,307.126 601.588,308.361 602.036,305.746 600.137,303.895 602.761,303.514 									"/>
									<polygon style="fill:#F26575;" points="613.26,301.136 614.434,303.514 617.058,303.895 615.159,305.746 615.607,308.361 
										613.26,307.126 610.912,308.361 611.361,305.746 609.462,303.895 612.086,303.514 									"/>
									<polygon style="fill:#F26575;" points="622.584,301.136 623.758,303.514 626.383,303.895 624.484,305.746 624.932,308.361 
										622.584,307.126 620.237,308.361 620.685,305.746 618.786,303.895 621.411,303.514 									"/>
								</g>
								<g>
									<g>
										<path style="fill:#FFA810;" d="M646.052,298.65h-84.901c-1.915,0-3.467-1.552-3.467-3.466v-24.222
											c0-1.914,1.552-3.466,3.467-3.466h85.495c1.954,0,3.538,1.584,3.538,3.538v23.483
											C650.185,296.799,648.335,298.65,646.052,298.65z"/>
										<path style="fill:#FF7D37;" d="M650.185,271.454c0,0-40.879,24.298-88.621,27.196h84.09c2.503,0,4.532-2.029,4.532-4.531
											V271.454z"/>
									</g>
									<g>
										<line style="fill:none;stroke:#FFFFFF;stroke-miterlimit:10;" x1="573.91" y1="274.047" x2="633.961" y2="274.047"/>
										<line style="fill:none;stroke:#FFFFFF;stroke-miterlimit:10;" x1="573.91" y1="278.56" x2="633.961" y2="278.56"/>
										<line style="fill:none;stroke:#FFFFFF;stroke-miterlimit:10;" x1="573.91" y1="283.072" x2="633.961" y2="283.072"/>
										<line style="fill:none;stroke:#FFFFFF;stroke-miterlimit:10;" x1="573.91" y1="287.585" x2="633.961" y2="287.585"/>
										<line style="fill:none;stroke:#FFFFFF;stroke-miterlimit:10;" x1="573.91" y1="292.097" x2="633.961" y2="292.097"/>
									</g>
									<circle style="fill:#FFFFFF;" cx="553.209" cy="283.072" r="18.606"/>
									<g>
										<defs>
											<circle id="SVGID_00000137841271534789442700000007981209646545021080_" cx="553.209" cy="283.072" r="18.606"/>
										</defs>
										<clipPath id="SVGID_00000042709661210563537990000011159236704636512957_">
											<use xlink:href="#SVGID_00000137841271534789442700000007981209646545021080_"  style="overflow:visible;"/>
										</clipPath>
										<g style="clip-path:url(#SVGID_00000042709661210563537990000011159236704636512957_);">
											<path style="fill:#F3A28D;" d="M563.837,292.088c-0.268-1.79-1.677-3.191-3.468-3.45
												c-2.038-0.294-3.56-0.722-4.045-1.106c-0.87-0.689-0.977-3.595-0.977-3.595l-2.377,0.646v-0.002l-0.021,0.001
												l-0.021-0.001v0.002l-2.191-0.491c0,0-0.395,2.751-1.265,3.44c-0.484,0.384-1.905,0.811-3.943,1.106
												c-1.791,0.259-3.2,1.66-3.468,3.45l-1.494,9.995h12.36h0.043h12.361L563.837,292.088z"/>
											<path style="fill:#1DC285;" d="M564.315,293.817c-0.254-1.7-0.768-4.651-3.324-5.271
												c-2.556-0.62-4.182-0.747-4.182-0.747l-3.86,4.848l-3.86-4.848c0,0-1.626,0.127-4.182,0.747
												c-2.556,0.62-3.07,3.572-3.324,5.271c-0.254,1.7-1.016,8.267-1.016,8.267h12.36h0.043h12.361
												C565.331,302.084,564.569,295.516,564.315,293.817z"/>
											<g>
												<path style="fill:#FFFFFF;" d="M554.406,293.817c0,0.178-0.144,0.322-0.321,0.322c-0.178,0-0.321-0.144-0.321-0.322
													c0-0.177,0.144-0.321,0.321-0.321C554.262,293.495,554.406,293.639,554.406,293.817z"/>
												<path style="fill:#FFFFFF;" d="M554.406,295.263c0,0.177-0.144,0.321-0.321,0.321c-0.178,0-0.321-0.144-0.321-0.321
													s0.144-0.322,0.321-0.322C554.262,294.941,554.406,295.085,554.406,295.263z"/>
												<path style="fill:#FFFFFF;" d="M554.406,296.709c0,0.177-0.144,0.321-0.321,0.321c-0.178,0-0.321-0.144-0.321-0.321
													c0-0.178,0.144-0.322,0.321-0.322C554.262,296.387,554.406,296.531,554.406,296.709z"/>
												<path style="fill:#FFFFFF;" d="M554.406,298.155c0,0.178-0.144,0.322-0.321,0.322c-0.178,0-0.321-0.144-0.321-0.322
													c0-0.178,0.144-0.321,0.321-0.321C554.262,297.833,554.406,297.977,554.406,298.155z"/>
												<path style="fill:#FFFFFF;" d="M554.406,299.6c0,0.177-0.144,0.321-0.321,0.321c-0.178,0-0.321-0.144-0.321-0.321
													c0-0.177,0.144-0.322,0.321-0.322C554.262,299.279,554.406,299.423,554.406,299.6z"/>
												<path style="fill:#FFFFFF;" d="M554.406,301.046c0,0.178-0.144,0.321-0.321,0.321c-0.178,0-0.321-0.144-0.321-0.321
													c0-0.178,0.144-0.321,0.321-0.321C554.262,300.725,554.406,300.869,554.406,301.046z"/>
											</g>
											<polygon style="fill:#FFFFFF;" points="552.949,292.647 552.689,292.32 552.689,292.647 552.689,302.084 
												553.209,302.084 553.209,292.647 553.209,292.32 											"/>
											<g>
												<path style="fill:#F3A28D;" d="M558.317,277.423c0-3.98-2.397-7.207-5.353-7.207s-5.353,3.226-5.353,7.207
													c0,1.418,0.305,2.851,0.955,4.107c0.29,0.56,0.647,1.086,1.077,1.542c0.439,0.467,0.949,0.86,1.403,1.311
													c0.416,0.412,0.75,0.842,1.381,0.893c0.355,0.029,0.724,0,1.081,0c0.681,0,1.188-0.615,1.597-1.082
													c0.486-0.556,1.108-0.985,1.561-1.566C557.797,281.173,558.317,279.269,558.317,277.423z"/>
												<g>
													<path style="fill:#210042;" d="M556.564,272.84c0,0-3.615,3.835-6.32,3.814c-2.14-0.016-1.841,4.539-1.84,4.542
														c-0.016-0.238-0.576-0.789-0.703-1c-0.505-0.839-0.89-1.762-1.073-2.726c-0.289-1.53,0.06-3.098,0.877-4.413
														c1.567-2.523,5.053-4.673,7.751-2.396c0.056,0.048,0.386,0.025,0.465,0.04c0.411,0.075,0.802,0.252,1.144,0.489
														c1.395,0.968,2.134,2.9,1.863,4.559c-0.128,0.783-0.265,1.564-0.398,2.347c-0.068,0.399-0.014,0.868-0.236,1.393
														C558.094,279.488,557.435,274.474,556.564,272.84z"/>
													<path style="fill:#210042;" d="M549.194,282.538c0.372,0.403,0.2,1.893,0.137,2.363
														c-0.177,1.316-1.164,2.186-2.314,2.69c-4.588,2.012-5.309,5.298-3.966,11.327c0.703,3.157-1.415,6.173-1.417,6.177
														c0.068-0.152,1.411-0.402,1.588-0.465c1.199-0.429,2.359-1.004,3.387-1.759c0.945-0.694,0.651-1.535,1.023-2.537
														c0.293-0.789,0.789-1.487,1.064-2.283c0.276-0.799,0.201-1.58,0.157-2.409c-0.089-1.682-0.022-3.221,1.285-4.452
														c1.04-0.98,0.786-3.104,0.564-4.543c-0.218-1.417,0-2.474,0-2.474S549.196,282.541,549.194,282.538z"/>
												</g>
											</g>
										</g>
									</g>
								</g>
							</g>
							<g>
								<g>
									<path style="fill:#1DC285;" d="M658.183,260.153c0-0.47,0.112-0.913,0.305-1.309l-9.435-4.603l-9.446,4.608
										c0.192,0.394,0.302,0.835,0.302,1.303c0,1.601-1.26,2.904-2.842,2.98c0.507,4.463,2.72,12.868,11.985,17.614
										c9.265-4.745,11.479-13.15,11.985-17.613C659.451,263.065,658.183,261.759,658.183,260.153z"/>
									
										<path style="fill:none;stroke:#FFFFFF;stroke-width:0.5;stroke-linecap:round;stroke-linejoin:round;stroke-miterlimit:10;" d="
										M649.053,279.454c-7.679-4.18-10.018-11.06-10.709-15.423c1.589-0.579,2.71-2.1,2.71-3.878
										c0-0.238-0.021-0.474-0.061-0.706l8.06-3.932l8.048,3.926c-0.041,0.234-0.062,0.472-0.062,0.712
										c0,1.785,1.126,3.308,2.723,3.883C659.07,268.399,656.729,275.276,649.053,279.454z"/>
								</g>
								
									<polyline style="fill:none;stroke:#FFFFFF;stroke-width:0.75;stroke-linecap:round;stroke-linejoin:round;stroke-miterlimit:10;" points="
									645.815,268.536 648.591,272.006 652.293,262.983 								"/>
							</g>
						</g>
					</g>
				</g>
				<g>
					<g>
						<g>
							<path style="fill:#350069;" d="M523.713,438.267H234.376V252.396c0-4.418,3.582-8,8-8h273.337c4.418,0,8,3.582,8,8V438.267z"
								/>
							
								<rect x="296.796" y="211.35" transform="matrix(-1.836970e-16 1 -1 -1.836970e-16 720.3758 -37.7131)" style="fill:#CEE8ED;" width="164.496" height="259.963"/>
						</g>
						<path style="fill:#210042;" d="M542.41,444.141H211.272c-1.841,0-3.333-1.492-3.333-3.333v-4.01h337.805v4.01
							C545.744,442.649,544.251,444.141,542.41,444.141z"/>
						<polygon style="fill:#350069;" points="536.931,448.548 221.157,448.548 213.079,444.141 540.603,444.141 						"/>
					</g>
					<g>
						<g>
							<g>
								<rect x="283.862" y="159.167" style="fill:#FFFFFF;" width="185.959" height="233.343"/>
								<rect x="283.862" y="159.167" style="fill:#FFA810;" width="59.9" height="233.343"/>
								
									<ellipse transform="matrix(0.7573 -0.6531 0.6531 0.7573 -46.4652 250.5323)" style="fill:#FFFFFF;" cx="313.812" cy="187.776" rx="21.457" ry="21.457"/>
								<g>
									<g>
										<rect x="290.567" y="216.386" style="fill:#FFFFFF;" width="46.49" height="5.364"/>
										<rect x="290.12" y="296.849" style="fill:#FFFFFF;" width="46.49" height="5.364"/>
									</g>
									<g>
										<g>
											
												<line style="fill:none;stroke:#350069;stroke-width:0.25;stroke-miterlimit:10;" x1="295.484" y1="230.69" x2="330.352" y2="230.69"/>
											
												<line style="fill:none;stroke:#350069;stroke-width:0.25;stroke-miterlimit:10;" x1="295.484" y1="233.819" x2="330.352" y2="233.819"/>
											
												<line style="fill:none;stroke:#350069;stroke-width:0.25;stroke-miterlimit:10;" x1="295.484" y1="236.948" x2="330.352" y2="236.948"/>
											
												<line style="fill:none;stroke:#350069;stroke-width:0.25;stroke-miterlimit:10;" x1="295.484" y1="240.077" x2="330.352" y2="240.077"/>
										</g>
										<g>
											
												<line style="fill:none;stroke:#350069;stroke-width:0.25;stroke-miterlimit:10;" x1="295.484" y1="252.147" x2="330.352" y2="252.147"/>
											
												<line style="fill:none;stroke:#350069;stroke-width:0.25;stroke-miterlimit:10;" x1="295.484" y1="255.276" x2="330.352" y2="255.276"/>
											
												<line style="fill:none;stroke:#350069;stroke-width:0.25;stroke-miterlimit:10;" x1="295.484" y1="258.405" x2="330.352" y2="258.405"/>
											
												<line style="fill:none;stroke:#350069;stroke-width:0.25;stroke-miterlimit:10;" x1="295.484" y1="261.534" x2="330.352" y2="261.534"/>
										</g>
										<g>
											
												<line style="fill:none;stroke:#350069;stroke-width:0.25;stroke-miterlimit:10;" x1="295.484" y1="273.604" x2="330.352" y2="273.604"/>
											
												<line style="fill:none;stroke:#350069;stroke-width:0.25;stroke-miterlimit:10;" x1="295.484" y1="276.733" x2="330.352" y2="276.733"/>
											
												<line style="fill:none;stroke:#350069;stroke-width:0.25;stroke-miterlimit:10;" x1="295.484" y1="279.862" x2="330.352" y2="279.862"/>
											
												<line style="fill:none;stroke:#350069;stroke-width:0.25;stroke-miterlimit:10;" x1="295.484" y1="282.991" x2="330.352" y2="282.991"/>
										</g>
									</g>
									<g>
										<g>
											
												<line style="fill:none;stroke:#350069;stroke-width:0.25;stroke-miterlimit:10;" x1="296.378" y1="312.941" x2="331.245" y2="312.941"/>
											
												<line style="fill:none;stroke:#350069;stroke-width:0.25;stroke-miterlimit:10;" x1="296.378" y1="316.07" x2="331.245" y2="316.07"/>
											
												<line style="fill:none;stroke:#350069;stroke-width:0.25;stroke-miterlimit:10;" x1="296.378" y1="319.2" x2="331.245" y2="319.2"/>
											
												<line style="fill:none;stroke:#350069;stroke-width:0.25;stroke-miterlimit:10;" x1="296.378" y1="322.329" x2="331.245" y2="322.329"/>
										</g>
										<g>
											
												<line style="fill:none;stroke:#350069;stroke-width:0.25;stroke-miterlimit:10;" x1="296.378" y1="334.398" x2="331.245" y2="334.398"/>
											
												<line style="fill:none;stroke:#350069;stroke-width:0.25;stroke-miterlimit:10;" x1="296.378" y1="337.527" x2="331.245" y2="337.527"/>
											
												<line style="fill:none;stroke:#350069;stroke-width:0.25;stroke-miterlimit:10;" x1="296.378" y1="340.656" x2="331.245" y2="340.656"/>
											
												<line style="fill:none;stroke:#350069;stroke-width:0.25;stroke-miterlimit:10;" x1="296.378" y1="343.786" x2="331.245" y2="343.786"/>
										</g>
										<g>
											
												<line style="fill:none;stroke:#350069;stroke-width:0.25;stroke-miterlimit:10;" x1="296.378" y1="355.855" x2="331.245" y2="355.855"/>
											
												<line style="fill:none;stroke:#350069;stroke-width:0.25;stroke-miterlimit:10;" x1="296.378" y1="358.984" x2="331.245" y2="358.984"/>
											
												<line style="fill:none;stroke:#350069;stroke-width:0.25;stroke-miterlimit:10;" x1="296.378" y1="362.113" x2="331.245" y2="362.113"/>
											
												<line style="fill:none;stroke:#350069;stroke-width:0.25;stroke-miterlimit:10;" x1="296.378" y1="365.242" x2="331.245" y2="365.242"/>
										</g>
									</g>
								</g>
								<g>
									<rect x="354.103" y="164.084" style="fill:#FFA810;" width="11.504" height="46.016"/>
									<rect x="354.103" y="223.249" style="fill:#FFA810;" width="11.504" height="46.017"/>
									<rect x="354.103" y="282.413" style="fill:#FFA810;" width="11.504" height="46.016"/>
									<rect x="354.103" y="341.577" style="fill:#FFA810;" width="11.504" height="46.016"/>
								</g>
								
									<line style="fill:none;stroke:#350069;stroke-width:0.25;stroke-miterlimit:10;" x1="373.265" y1="163.637" x2="373.265" y2="387.146"/>
								<g>
									<g>
										
											<line style="fill:none;stroke:#350069;stroke-width:0.25;stroke-miterlimit:10;" x1="381.311" y1="174.813" x2="462.669" y2="174.813"/>
										
											<line style="fill:none;stroke:#350069;stroke-width:0.25;stroke-miterlimit:10;" x1="381.311" y1="180.177" x2="462.669" y2="180.177"/>
									</g>
									<g>
										
											<line style="fill:none;stroke:#350069;stroke-width:0.25;stroke-miterlimit:10;" x1="381.311" y1="185.541" x2="462.669" y2="185.541"/>
										
											<line style="fill:none;stroke:#350069;stroke-width:0.25;stroke-miterlimit:10;" x1="381.311" y1="190.906" x2="462.669" y2="190.906"/>
									</g>
									<g>
										
											<line style="fill:none;stroke:#350069;stroke-width:0.25;stroke-miterlimit:10;" x1="381.311" y1="196.27" x2="462.669" y2="196.27"/>
										
											<line style="fill:none;stroke:#350069;stroke-width:0.25;stroke-miterlimit:10;" x1="381.311" y1="201.634" x2="462.669" y2="201.634"/>
									</g>
								</g>
								<g>
									<g>
										
											<line style="fill:none;stroke:#350069;stroke-width:0.25;stroke-miterlimit:10;" x1="381.311" y1="232.925" x2="462.669" y2="232.925"/>
										
											<line style="fill:none;stroke:#350069;stroke-width:0.25;stroke-miterlimit:10;" x1="381.311" y1="238.289" x2="462.669" y2="238.289"/>
									</g>
									<g>
										
											<line style="fill:none;stroke:#350069;stroke-width:0.25;stroke-miterlimit:10;" x1="381.311" y1="243.654" x2="462.669" y2="243.654"/>
										
											<line style="fill:none;stroke:#350069;stroke-width:0.25;stroke-miterlimit:10;" x1="381.311" y1="249.018" x2="462.669" y2="249.018"/>
									</g>
									<g>
										
											<line style="fill:none;stroke:#350069;stroke-width:0.25;stroke-miterlimit:10;" x1="381.311" y1="254.382" x2="462.669" y2="254.382"/>
										
											<line style="fill:none;stroke:#350069;stroke-width:0.25;stroke-miterlimit:10;" x1="381.311" y1="259.746" x2="462.669" y2="259.746"/>
									</g>
								</g>
								<g>
									<g>
										
											<line style="fill:none;stroke:#350069;stroke-width:0.25;stroke-miterlimit:10;" x1="381.311" y1="291.038" x2="462.669" y2="291.038"/>
										
											<line style="fill:none;stroke:#350069;stroke-width:0.25;stroke-miterlimit:10;" x1="381.311" y1="296.402" x2="462.669" y2="296.402"/>
									</g>
									<g>
										
											<line style="fill:none;stroke:#350069;stroke-width:0.25;stroke-miterlimit:10;" x1="381.311" y1="301.766" x2="462.669" y2="301.766"/>
										
											<line style="fill:none;stroke:#350069;stroke-width:0.25;stroke-miterlimit:10;" x1="381.311" y1="307.13" x2="462.669" y2="307.13"/>
									</g>
									<g>
										
											<line style="fill:none;stroke:#350069;stroke-width:0.25;stroke-miterlimit:10;" x1="381.311" y1="312.494" x2="462.669" y2="312.494"/>
										
											<line style="fill:none;stroke:#350069;stroke-width:0.25;stroke-miterlimit:10;" x1="381.311" y1="317.859" x2="462.669" y2="317.859"/>
									</g>
								</g>
								<g>
									<g>
										
											<line style="fill:none;stroke:#350069;stroke-width:0.25;stroke-miterlimit:10;" x1="381.311" y1="349.15" x2="462.669" y2="349.15"/>
										
											<line style="fill:none;stroke:#350069;stroke-width:0.25;stroke-miterlimit:10;" x1="381.311" y1="354.514" x2="462.669" y2="354.514"/>
									</g>
									<g>
										
											<line style="fill:none;stroke:#350069;stroke-width:0.25;stroke-miterlimit:10;" x1="381.311" y1="359.878" x2="462.669" y2="359.878"/>
										
											<line style="fill:none;stroke:#350069;stroke-width:0.25;stroke-miterlimit:10;" x1="381.311" y1="365.242" x2="462.669" y2="365.242"/>
									</g>
									<g>
										
											<line style="fill:none;stroke:#350069;stroke-width:0.25;stroke-miterlimit:10;" x1="381.311" y1="370.607" x2="462.669" y2="370.607"/>
										
											<line style="fill:none;stroke:#350069;stroke-width:0.25;stroke-miterlimit:10;" x1="381.311" y1="375.971" x2="462.669" y2="375.971"/>
									</g>
								</g>
								<g>
									<defs>
										
											<ellipse id="SVGID_00000041275416963629134140000010421082819313617560_" transform="matrix(0.7573 -0.6531 0.6531 0.7573 -46.4652 250.5323)" cx="313.812" cy="187.776" rx="21.457" ry="21.457"/>
									</defs>
									<clipPath id="SVGID_00000104664230410010958080000017235259212463157682_">
										<use xlink:href="#SVGID_00000041275416963629134140000010421082819313617560_"  style="overflow:visible;"/>
									</clipPath>
									<g style="clip-path:url(#SVGID_00000104664230410010958080000017235259212463157682_);">
										<path style="fill:#F3A28D;" d="M326.893,198.792c-0.322-2.151-2.014-3.834-4.167-4.145
											c-2.448-0.354-4.278-0.868-4.86-1.329c-1.045-0.828-1.174-4.319-1.174-4.319l-2.855,0.776v-0.003l-0.026,0.001
											l-0.026-0.001v0.003l-2.632-0.59c0,0-0.474,3.305-1.519,4.133c-0.582,0.461-2.289,0.975-4.737,1.329
											c-2.152,0.311-3.845,1.994-4.167,4.145l-1.795,12.009h14.85h0.051h14.85L326.893,198.792z"/>
										<path style="fill:#F26575;" d="M309.634,193.318c0,0,4.067,3.196,8.232,0c0,0,2.832,1.073,5.765,1.421
											c2.933,0.348,3.36,4.714,3.579,6.176l1.478,9.886h-29.752l1.888-12.633c0,0,0.537-2.99,4.073-3.521
											C308.433,194.115,309.634,193.318,309.634,193.318z"/>
										<g>
											<path style="fill:#F3A28D;" d="M320.26,181.172c0-4.782-2.88-8.658-6.432-8.658c-3.552,0-6.431,3.877-6.431,8.658
												c0,1.704,0.366,3.426,1.147,4.935c0.348,0.673,0.778,1.304,1.294,1.853c0.528,0.562,1.139,1.033,1.686,1.575
												c0.499,0.495,0.901,1.012,1.659,1.074c0.427,0.035,0.87,0,1.298,0c0.818,0,1.428-0.739,1.918-1.3
												c0.584-0.668,1.332-1.183,1.875-1.881C319.635,185.678,320.26,183.391,320.26,181.172z"/>
											<g>
												<path style="fill:#210042;" d="M311.271,175.577c0,0,0.209-6.362,7.093-4.068c2.164,0.722,4.125,2.013,4.434,4.422
													c0.139,1.082-0.011,2.235,0.272,3.296c0.749,2.798,3.186,2.155,2.685,5.661c-0.186,1.301-0.286,3.75,0.565,4.693
													c0.677,0.75,1.473,1.601,1.882,2.583c0.66,1.585-0.136,3.845-0.345,5.489c-0.194,1.523-0.349,3.055-0.449,4.588
													c0,0-1.708-7.989-4.217-7.503c-1.603,0.31-3.474,0.032-4.845-0.881c-1.797-1.196-1.487-2.95-1.653-4.857
													c0,0,5.631-5.508,2.506-8.807C319.199,180.193,312.001,178.706,311.271,175.577z"/>
												<path style="fill:#210042;" d="M312.364,172.512c-0.409,0.848-2.962,0.559-3.794,1.076
													c-1.558,0.968-2.398,2.791-2.904,4.486c-0.307,1.029-0.465,1.94-0.256,3.007c0.223,1.144,0.706,2.213,0.61,3.404
													c-0.105,1.312-0.678,2.611-1.604,3.553c-0.943,0.959-2.275,1.364-3.265,2.259c-1.759,1.591,0.747,4.747-0.44,6.397
													c-0.475,0.66-0.129,2.791-0.146,3.207c0.758-0.926,1.581-1.805,2.432-2.644c1.309-1.289,3.077-3.104,5.006-3.308
													c1.167-0.123,2.006-0.216,2.505-1.401c0.442-1.049,0.435-2.256,0.645-3.362c0,0-6.282-8.831,0.117-13.609l0.208-1.231
													C311.479,174.345,312.361,172.518,312.364,172.512z"/>
											</g>
										</g>
										<g>
											<polygon style="fill:#DB5C6A;" points="304.823,199.9 304.823,210.801 306.201,210.801 											"/>
											<polygon style="fill:#DB5C6A;" points="322.801,199.9 322.801,210.801 321.423,210.801 											"/>
										</g>
									</g>
								</g>
							</g>
						</g>
						<g>
							<g>
								<path style="fill:#F26575;" d="M354.488,404.296c0,1.908-1.547,3.455-3.455,3.455c-1.908,0-3.455-1.547-3.455-3.455
									c0-1.908,1.547-3.455,3.455-3.455C352.942,400.841,354.488,402.388,354.488,404.296z"/>
								<circle style="fill:#F26575;" cx="363.55" cy="404.296" r="3.455"/>
								<path style="fill:#F26575;" d="M379.521,404.296c0,1.908-1.547,3.455-3.455,3.455c-1.908,0-3.455-1.547-3.455-3.455
									c0-1.908,1.547-3.455,3.455-3.455C377.975,400.841,379.521,402.388,379.521,404.296z"/>
								<path style="fill:#F26575;" d="M392.038,404.296c0,1.908-1.547,3.455-3.455,3.455c-1.908,0-3.455-1.547-3.455-3.455
									c0-1.908,1.547-3.455,3.455-3.455C390.491,400.841,392.038,402.388,392.038,404.296z"/>
								<path style="fill:#F26575;" d="M404.555,404.296c0,1.908-1.547,3.455-3.455,3.455c-1.908,0-3.455-1.547-3.455-3.455
									c0-1.908,1.547-3.455,3.455-3.455C403.008,400.841,404.555,402.388,404.555,404.296z"/>
							</g>
							<g>
								<g>
									<path style="fill:#FFA810;" d="M484.705,404.002l-4.734-6.094c-0.28-0.361-0.857-0.163-0.857,0.294v1.431v0.319h-7.553
										c-0.626,0-1.134,0.508-1.134,1.134v6.419c0,0.626,0.508,1.134,1.134,1.134h7.553v1.75c0,0.456,0.577,0.654,0.857,0.294
										l4.734-6.094C484.839,404.417,484.839,404.175,484.705,404.002z"/>
									<g>
										<path style="fill:#FFFFFF;" d="M471.42,400.877c1.224-0.103,2.449-0.11,3.674-0.125c1.225,0.014,2.449,0.021,3.673,0.125
											c-1.224,0.104-2.449,0.111-3.673,0.125C473.869,400.987,472.644,400.98,471.42,400.877z"/>
									</g>
								</g>
								<g>
									<path style="fill:#FFA810;" d="M268.809,404.002l4.733-6.094c0.28-0.361,0.857-0.163,0.857,0.294v1.431v0.319h7.553
										c0.626,0,1.134,0.508,1.134,1.134v6.419c0,0.626-0.508,1.134-1.134,1.134H274.4v1.75c0,0.456-0.578,0.654-0.857,0.294
										l-4.733-6.094C268.674,404.417,268.674,404.175,268.809,404.002z"/>
									<g>
										<path style="fill:#FFFFFF;" d="M282.094,400.877c-1.224,0.103-2.449,0.11-3.673,0.125
											c-1.224-0.014-2.449-0.021-3.674-0.125c1.225-0.104,2.449-0.111,3.674-0.125
											C279.645,400.767,280.87,400.774,282.094,400.877z"/>
									</g>
								</g>
							</g>
						</g>
					</g>
					<g>
						<g>
							<g>
								<g>
									<path style="fill:#1DC285;" d="M533.593,437.039h-112.44c-3.247,0-5.88-2.633-5.88-5.88v-19.644
										c0-3.248,2.633-5.88,5.88-5.88h112.44V437.039z"/>
									<path style="fill:#FFFFFF;" d="M533.593,433.66h-75.24c-4.379,0-7.93-3.55-7.93-7.93v-8.788c0-4.379,3.55-7.93,7.93-7.93
										h75.24V433.66z"/>
									<path style="fill:#FFA810;" d="M430.928,405.635c0,1.325-7.685,16.166,0,31.405h-7.155c0,0-8.481-13.648,0-31.405H430.928z
										"/>
									<g>
										
											<line style="fill:none;stroke:#EBEBEB;stroke-width:0.5;stroke-linecap:round;stroke-linejoin:round;stroke-miterlimit:10;" x1="454.486" y1="413.188" x2="533.196" y2="413.188"/>
										
											<line style="fill:none;stroke:#EBEBEB;stroke-width:0.5;stroke-linecap:round;stroke-linejoin:round;stroke-miterlimit:10;" x1="454.486" y1="415.971" x2="533.196" y2="415.971"/>
										
											<line style="fill:none;stroke:#EBEBEB;stroke-width:0.5;stroke-linecap:round;stroke-linejoin:round;stroke-miterlimit:10;" x1="454.486" y1="418.753" x2="533.196" y2="418.753"/>
										
											<line style="fill:none;stroke:#EBEBEB;stroke-width:0.5;stroke-linecap:round;stroke-linejoin:round;stroke-miterlimit:10;" x1="454.486" y1="421.536" x2="533.196" y2="421.536"/>
										
											<line style="fill:none;stroke:#EBEBEB;stroke-width:0.5;stroke-linecap:round;stroke-linejoin:round;stroke-miterlimit:10;" x1="454.486" y1="424.319" x2="533.196" y2="424.319"/>
										
											<line style="fill:none;stroke:#EBEBEB;stroke-width:0.5;stroke-linecap:round;stroke-linejoin:round;stroke-miterlimit:10;" x1="454.486" y1="427.101" x2="533.196" y2="427.101"/>
										
											<line style="fill:none;stroke:#EBEBEB;stroke-width:0.5;stroke-linecap:round;stroke-linejoin:round;stroke-miterlimit:10;" x1="454.486" y1="429.884" x2="533.196" y2="429.884"/>
									</g>
								</g>
								<g>
									<polygon style="fill:#FFA810;" points="521.866,409.014 517.294,409.014 517.294,420.145 521.866,415.971 526.438,420.145 
										526.438,409.014 									"/>
									<g>
										<path style="fill:#FFFFFF;" d="M518.487,410.008c0.103,1.193,0.11,2.385,0.125,3.578
											c-0.014,1.193-0.021,2.385-0.125,3.578c-0.104-1.193-0.111-2.385-0.125-3.578
											C518.377,412.393,518.384,411.2,518.487,410.008z"/>
									</g>
								</g>
							</g>
							<g>
								<g>
									<path style="fill:#F26575;" d="M545.519,405.602h-112.44c-3.247,0-5.88-2.633-5.88-5.88v-19.644
										c0-3.248,2.633-5.88,5.88-5.88h112.44V405.602z"/>
									<path style="fill:#FFFFFF;" d="M545.519,402.223h-75.24c-4.379,0-7.93-3.55-7.93-7.93v-8.787c0-4.379,3.55-7.93,7.93-7.93
										h75.24V402.223z"/>
									<path style="fill:#FFA810;" d="M442.854,374.197c0,1.325-7.685,16.166,0,31.404h-7.155c0,0-8.481-13.648,0-31.404H442.854z
										"/>
									<g>
										
											<line style="fill:none;stroke:#EBEBEB;stroke-width:0.5;stroke-linecap:round;stroke-linejoin:round;stroke-miterlimit:10;" x1="466.411" y1="381.75" x2="545.121" y2="381.75"/>
										
											<line style="fill:none;stroke:#EBEBEB;stroke-width:0.5;stroke-linecap:round;stroke-linejoin:round;stroke-miterlimit:10;" x1="466.411" y1="384.533" x2="545.121" y2="384.533"/>
										
											<line style="fill:none;stroke:#EBEBEB;stroke-width:0.5;stroke-linecap:round;stroke-linejoin:round;stroke-miterlimit:10;" x1="466.411" y1="387.315" x2="545.121" y2="387.315"/>
										
											<line style="fill:none;stroke:#EBEBEB;stroke-width:0.5;stroke-linecap:round;stroke-linejoin:round;stroke-miterlimit:10;" x1="466.411" y1="390.098" x2="545.121" y2="390.098"/>
										
											<line style="fill:none;stroke:#EBEBEB;stroke-width:0.5;stroke-linecap:round;stroke-linejoin:round;stroke-miterlimit:10;" x1="466.411" y1="392.881" x2="545.121" y2="392.881"/>
										
											<line style="fill:none;stroke:#EBEBEB;stroke-width:0.5;stroke-linecap:round;stroke-linejoin:round;stroke-miterlimit:10;" x1="466.411" y1="395.664" x2="545.121" y2="395.664"/>
										
											<line style="fill:none;stroke:#EBEBEB;stroke-width:0.5;stroke-linecap:round;stroke-linejoin:round;stroke-miterlimit:10;" x1="466.411" y1="398.446" x2="545.121" y2="398.446"/>
									</g>
								</g>
								<g>
									<polygon style="fill:#FFA810;" points="533.792,377.576 529.22,377.576 529.22,388.707 533.792,384.533 538.363,388.707 
										538.363,377.576 									"/>
									<g>
										<path style="fill:#FFFFFF;" d="M530.413,378.57c0.103,1.193,0.11,2.385,0.125,3.578c-0.014,1.193-0.021,2.385-0.125,3.578
											c-0.104-1.193-0.11-2.385-0.125-3.578C530.303,380.955,530.31,379.763,530.413,378.57z"/>
									</g>
								</g>
							</g>
						</g>
						<g>
							<g>
								<g>
									<path style="fill:#350069;" d="M493.009,373.941h-49.278c-1.942,0-3.517-1.574-3.517-3.517v-86.856
										c0-1.942,1.575-3.517,3.517-3.517h49.278c1.942,0,3.517,1.575,3.517,3.517v86.856
										C496.526,372.366,494.951,373.941,493.009,373.941z"/>
									<path style="fill:#CEE8ED;" d="M444.356,365.798v-77.606c0-2.209,1.791-4,4-4h40.028c2.209,0,4,1.791,4,4v77.606
										c0,2.209-1.791,4-4,4h-40.028C446.147,369.798,444.356,368.007,444.356,365.798z"/>
								</g>
								
									<ellipse transform="matrix(0.2315 -0.9728 0.9728 0.2315 61.6982 691.275)" style="fill:#FFFFFF;" cx="468.37" cy="306.588" rx="17.259" ry="17.259"/>
								<g>
									<g>
										<defs>
											
												<ellipse id="SVGID_00000143583625756263211590000011012778369315917185_" transform="matrix(0.2315 -0.9728 0.9728 0.2315 61.6982 691.275)" cx="468.37" cy="306.588" rx="17.259" ry="17.259"/>
										</defs>
										<clipPath id="SVGID_00000142168880754344697300000014107284497107398048_">
											<use xlink:href="#SVGID_00000143583625756263211590000011012778369315917185_"  style="overflow:visible;"/>
										</clipPath>
										<g style="clip-path:url(#SVGID_00000142168880754344697300000014107284497107398048_);">
											<path style="fill:#F3A28D;" d="M477.803,315.187c-0.232-1.551-1.452-2.765-3.004-2.989
												c-1.766-0.255-3.085-0.626-3.504-0.958c-0.754-0.597-0.847-3.114-0.847-3.114l-2.059,0.559v-0.002l-0.018,0.001
												l-0.018-0.001v0.002l-1.898-0.426c0,0-0.342,2.383-1.096,2.98c-0.42,0.333-1.651,0.703-3.416,0.958
												c-1.552,0.224-2.773,1.438-3.004,2.989l-1.294,8.66h10.709h0.037h10.709L477.803,315.187z"/>
											<path style="fill:#F26575;" d="M465.358,311.24c0,0,2.933,2.305,5.936,0c0,0,2.042,0.774,4.157,1.024
												c2.115,0.251,2.423,3.399,2.58,4.454l1.065,7.129h-21.454l1.361-9.109c0,0,0.387-2.156,2.937-2.539
												C464.492,311.815,465.358,311.24,465.358,311.24z"/>
											<g>
												<path style="fill:#F3A28D;" d="M473.02,302.481c0-3.448-2.077-6.244-4.638-6.244s-4.638,2.795-4.638,6.244
													c0,1.229,0.264,2.47,0.827,3.558c0.251,0.485,0.561,0.941,0.933,1.336c0.38,0.405,0.822,0.745,1.216,1.136
													c0.36,0.357,0.65,0.73,1.196,0.774c0.308,0.025,0.627,0,0.936,0c0.59,0,1.03-0.533,1.383-0.938
													c0.421-0.482,0.96-0.853,1.352-1.357C472.57,305.73,473.02,304.081,473.02,302.481z"/>
												<g>
													<path style="fill:#210042;" d="M466.538,298.446c0,0,0.15-4.588,5.114-2.933c1.561,0.52,2.975,1.451,3.198,3.189
														c0.1,0.781-0.008,1.612,0.196,2.376c0.54,2.018,2.297,1.555,1.936,4.082c-0.134,0.938-0.206,2.704,0.408,3.384
														c0.488,0.541,1.062,1.154,1.357,1.863c0.476,1.143-0.098,2.772-0.249,3.958c-0.14,1.099-0.252,2.203-0.324,3.308
														c0,0-1.231-5.76-3.041-5.41c-1.156,0.224-2.505,0.023-3.494-0.635c-1.296-0.862-1.072-2.127-1.192-3.503
														c0,0,4.061-3.972,1.807-6.351C472.255,301.775,467.064,300.702,466.538,298.446z"/>
													<path style="fill:#210042;" d="M467.326,296.236c-0.295,0.612-2.136,0.403-2.736,0.776
														c-1.124,0.698-1.73,2.012-2.094,3.234c-0.221,0.742-0.335,1.399-0.185,2.169c0.161,0.825,0.509,1.596,0.44,2.455
														c-0.076,0.946-0.489,1.883-1.157,2.562c-0.68,0.692-1.64,0.983-2.354,1.629c-1.269,1.147,0.539,3.423-0.318,4.613
														c-0.342,0.476-0.093,2.013-0.105,2.313c0.546-0.668,1.14-1.302,1.754-1.907c0.944-0.929,2.219-2.238,3.61-2.386
														c0.841-0.089,1.446-0.156,1.806-1.01c0.319-0.757,0.314-1.627,0.465-2.424c0,0-4.53-6.368,0.085-9.813l0.15-0.888
														C466.688,297.558,467.324,296.24,467.326,296.236z"/>
												</g>
											</g>
											<g>
												<polygon style="fill:#DB5C6A;" points="461.888,315.986 461.888,323.847 462.882,323.847 												"/>
												<polygon style="fill:#DB5C6A;" points="474.852,315.986 474.852,323.847 473.858,323.847 												"/>
											</g>
										</g>
									</g>
								</g>
								<g>
									<g>
										<g>
											<polygon style="fill:#FFA810;" points="455.465,328.569 456.277,330.148 458.094,330.401 456.779,331.63 457.09,333.365 
												455.465,332.546 453.841,333.365 454.151,331.63 452.837,330.401 454.653,330.148 											"/>
											<polygon style="fill:#FFA810;" points="461.918,328.569 462.73,330.148 464.546,330.401 463.232,331.63 463.542,333.365 
												461.918,332.546 460.293,333.365 460.603,331.63 459.289,330.401 461.105,330.148 											"/>
											<polygon style="fill:#FFA810;" points="468.37,328.569 469.182,330.148 470.998,330.401 469.684,331.63 469.994,333.365 
												468.37,332.546 466.746,333.365 467.056,331.63 465.742,330.401 467.558,330.148 											"/>
											<polygon style="fill:#FFA810;" points="474.822,328.569 475.635,330.148 477.451,330.401 476.137,331.63 
												476.447,333.365 474.822,332.546 473.198,333.365 473.508,331.63 472.194,330.401 474.01,330.148 											"/>
											<polygon style="fill:#FFA810;" points="481.275,328.569 482.087,330.148 483.903,330.401 482.589,331.63 
												482.899,333.365 481.275,332.546 479.65,333.365 479.961,331.63 478.647,330.401 480.463,330.148 											"/>
										</g>
									</g>
									<g>
										<rect x="450.252" y="337.321" style="fill:#FFFFFF;" width="36.237" height="5.35"/>
										<g>
											
												<line style="fill:none;stroke:#350069;stroke-width:0.25;stroke-miterlimit:10;" x1="453.959" y1="345.778" x2="482.781" y2="345.778"/>
											
												<line style="fill:none;stroke:#350069;stroke-width:0.25;stroke-miterlimit:10;" x1="453.959" y1="348.885" x2="482.781" y2="348.885"/>
											
												<line style="fill:none;stroke:#350069;stroke-width:0.25;stroke-miterlimit:10;" x1="453.959" y1="351.992" x2="482.781" y2="351.992"/>
											
												<line style="fill:none;stroke:#350069;stroke-width:0.25;stroke-miterlimit:10;" x1="453.959" y1="355.098" x2="482.781" y2="355.098"/>
											
												<line style="fill:none;stroke:#350069;stroke-width:0.25;stroke-miterlimit:10;" x1="453.959" y1="358.205" x2="482.781" y2="358.205"/>
										</g>
									</g>
								</g>
							</g>
							<g>
								<g>
									<path style="fill:#FFA810;" d="M527.339,373.859c-11.675,3.752-24.181-2.67-27.933-14.345
										c-3.752-11.675,2.67-24.181,14.345-27.933c11.675-3.752,24.181,2.671,27.933,14.345
										C545.437,357.601,539.014,370.107,527.339,373.859z"/>
									
										<ellipse transform="matrix(0.7968 -0.6042 0.6042 0.7968 -107.3552 386.1837)" style="fill:#CEE8ED;" cx="520.545" cy="352.72" rx="18.91" ry="18.91"/>
									<path style="opacity:0.69;fill:#FFFFFF;" d="M520.545,352.72c-6.616,2.126-13.202,0.046-14.71-4.647
										c-1.508-4.693,2.632-10.221,9.248-12.347c6.616-2.126,13.202-0.046,14.71,4.647
										C531.302,345.066,527.161,350.594,520.545,352.72z"/>
								</g>
								<g>
									<path style="fill:#FFA810;" d="M458.342,373.665l-0.556-1.728c-0.271-0.842,0.193-1.743,1.034-2.014l40.367-12.973
										l1.535,4.776l-40.366,12.973C459.514,374.969,458.612,374.506,458.342,373.665z"/>
									<g>
										<path style="fill:#FFFFFF;" d="M497.848,358.525c-3.114,1.097-6.236,2.17-9.367,3.212l-9.408,3.085l-9.444,2.975
											c-3.152,0.978-6.314,1.925-9.485,2.846c3.114-1.098,6.236-2.171,9.367-3.213l9.408-3.084l9.444-2.974
											C491.515,360.394,494.678,359.447,497.848,358.525z"/>
									</g>
								</g>
								<g>
									<path style="fill:#FFFFFF;" d="M532.981,335.942c-1.385-0.899-2.878-1.621-4.417-2.196c-1.533-0.59-3.12-1.043-4.738-1.295
										c-3.225-0.519-6.587-0.321-9.644,0.837c-1.531,0.557-2.99,1.307-4.352,2.21c-1.333,0.943-2.615,1.971-3.758,3.15
										c-2.324,2.318-4.261,5.018-5.948,7.854l1.209-2.165l1.329-2.098c0.968-1.344,1.978-2.665,3.135-3.861
										c1.115-1.237,2.43-2.277,3.777-3.257c1.383-0.934,2.87-1.719,4.438-2.303c3.15-1.149,6.608-1.356,9.879-0.745
										C527.166,332.69,530.289,334.027,532.981,335.942z"/>
								</g>
							</g>
						</g>
					</g>
					<g>
						<g>
							<g>
								<rect x="152.337" y="314.346" style="fill:#350069;" width="105.139" height="74.201"/>
								
									<rect x="169.748" y="300.57" transform="matrix(-1.836970e-16 1 -1 -1.836970e-16 556.3538 146.5399)" style="fill:#FFFFFF;" width="70.318" height="101.754"/>
							</g>
							<g>
								
									<line style="fill:none;stroke:#210042;stroke-linecap:round;stroke-linejoin:round;stroke-miterlimit:10;" x1="187.26" y1="388.547" x2="170.277" y2="447.762"/>
								
									<line style="fill:none;stroke:#210042;stroke-linecap:round;stroke-linejoin:round;stroke-miterlimit:10;" x1="222.554" y1="388.547" x2="239.537" y2="447.762"/>
							</g>
							<g>
								
									<line style="fill:none;stroke:#210042;stroke-linecap:round;stroke-linejoin:round;stroke-miterlimit:10;" x1="227.318" y1="404.636" x2="174.642" y2="432.773"/>
								
									<line style="fill:none;stroke:#210042;stroke-linecap:round;stroke-linejoin:round;stroke-miterlimit:10;" x1="183.55" y1="404.57" x2="235.173" y2="432.317"/>
							</g>
						</g>
						<g>
							<g>
								<g>
									<path style="fill:#1DC285;" d="M181.269,320.175c-6.196,0-11.219,5.023-11.219,11.219c0,6.196,5.023,11.219,11.219,11.219
										s11.219-5.023,11.219-11.219C192.488,325.198,187.465,320.175,181.269,320.175z M181.269,339.327
										c-4.381,0-7.933-3.552-7.933-7.933c0-4.381,3.552-7.933,7.933-7.933s7.933,3.552,7.933,7.933
										C189.202,335.776,185.65,339.327,181.269,339.327z"/>
									<g>
										
											<line style="fill:none;stroke:#350069;stroke-width:0.25;stroke-linecap:round;stroke-linejoin:round;stroke-miterlimit:10;" x1="172.675" y1="345.128" x2="189.862" y2="345.128"/>
										
											<line style="fill:none;stroke:#350069;stroke-width:0.25;stroke-linecap:round;stroke-linejoin:round;stroke-miterlimit:10;" x1="172.675" y1="347.643" x2="189.862" y2="347.643"/>
									</g>
								</g>
								<g>
									<path style="fill:#FFA810;" d="M180.242,353.353c-6.196,0-11.219,5.023-11.219,11.219c0,6.196,5.023,11.219,11.219,11.219
										c6.196,0,11.219-5.023,11.219-11.219C191.461,358.376,186.438,353.353,180.242,353.353z M180.242,372.505
										c-4.381,0-7.933-3.552-7.933-7.933c0-4.381,3.552-7.933,7.933-7.933s7.933,3.552,7.933,7.933
										C188.175,368.953,184.624,372.505,180.242,372.505z"/>
									<g>
										
											<line style="fill:none;stroke:#350069;stroke-width:0.25;stroke-linecap:round;stroke-linejoin:round;stroke-miterlimit:10;" x1="171.649" y1="378.306" x2="188.836" y2="378.306"/>
										
											<line style="fill:none;stroke:#350069;stroke-width:0.25;stroke-linecap:round;stroke-linejoin:round;stroke-miterlimit:10;" x1="171.649" y1="380.821" x2="188.836" y2="380.821"/>
									</g>
								</g>
							</g>
							<g>
								<g>
									<g>
										<rect x="213.399" y="323.108" style="fill:#1DC285;" width="3.683" height="24.535"/>
										<rect x="221.653" y="327.366" style="fill:#FFA810;" width="3.683" height="20.277"/>
										<rect x="230.515" y="333.006" style="fill:#F26575;" width="3.683" height="14.638"/>
									</g>
									
										<polyline style="fill:none;stroke:#350069;stroke-width:0.25;stroke-linecap:round;stroke-linejoin:round;stroke-miterlimit:10;" points="
										207.952,347.643 215.241,323.108 223.494,333.909 232.356,333.161 240.791,323.108 									"/>
									
										<polyline style="fill:none;stroke:#350069;stroke-width:0.25;stroke-linecap:round;stroke-linejoin:round;stroke-miterlimit:10;" points="
										207.952,320.175 207.952,347.643 239.037,347.643 									"/>
								</g>
								<g>
									<g>
										<rect x="210.335" y="362.162" style="fill:#F26575;" width="3.146" height="18.66"/>
										<rect x="217.164" y="366.919" style="fill:#FFA810;" width="3.146" height="13.903"/>
										<rect x="224.146" y="363.236" style="fill:#1DC285;" width="3.146" height="17.585"/>
										<rect x="231.589" y="374.898" style="fill:#FE8139;" width="3.146" height="5.923"/>
									</g>
									
										<line style="fill:none;stroke:#350069;stroke-width:0.25;stroke-linecap:round;stroke-linejoin:round;stroke-miterlimit:10;" x1="206.034" y1="380.821" x2="239.037" y2="380.821"/>
								</g>
							</g>
						</g>
					</g>
				</g>
			</g>
			<g>
				<polyline style="fill:none;stroke:#FFFFFF;stroke-width:2;stroke-miterlimit:10;" points="561.984,333.424 585.54,340.065 
					572.839,364.263 604.632,370.883 				"/>
				<g>
					<path style="fill:#F26575;" d="M559.886,336.417c-1.832,0.852-4.007,0.058-4.859-1.774c-0.852-1.832-0.058-4.007,1.774-4.859
						c1.832-0.852,4.007-0.058,4.859,1.774C562.512,333.39,561.718,335.565,559.886,336.417z"/>
					<path style="fill:#FFA810;" d="M586.244,343.771c-1.832,0.852-4.007,0.058-4.859-1.774c-0.852-1.832-0.058-4.007,1.774-4.859
						c1.832-0.852,4.007-0.058,4.859,1.774C588.87,340.744,588.076,342.919,586.244,343.771z"/>
					<path style="fill:#1DC285;" d="M606.175,374.199c-1.832,0.852-4.007,0.058-4.859-1.774c-0.852-1.832-0.058-4.007,1.774-4.859
						c1.832-0.852,4.007-0.058,4.859,1.774C608.8,371.171,608.006,373.347,606.175,374.199z"/>
					<path style="fill:#F26575;" d="M574.207,368.128c-1.832,0.852-4.007,0.058-4.859-1.774c-0.852-1.832-0.058-4.007,1.774-4.859
						c1.832-0.852,4.007-0.058,4.859,1.774C576.833,365.101,576.039,367.276,574.207,368.128z"/>
				</g>
			</g>
		</g>
	</g>
</g>
</svg>
